<svg version="1.1" id="Layer_1" xmlns="http://www.w3.org/2000/svg" xmlns:xlink="http://www.w3.org/1999/xlink" x="0px" y="0px"
	 width="100%" viewBox="0 0 2048 2048" enable-background="new 0 0 2048 2048" xml:space="preserve">
<path fill="#0E0814" opacity="1.000000" stroke="none" 
	d="
M911.000000,2049.000000 
	C607.333313,2049.000000 304.166656,2049.000000 1.000000,2049.000000 
	C1.000000,1366.333374 1.000000,683.666687 1.000000,1.000000 
	C683.666687,1.000000 1366.333374,1.000000 2049.000000,1.000000 
	C2049.000000,683.666687 2049.000000,1366.333374 2049.000000,2049.000000 
	C1669.833374,2049.000000 1290.666626,2049.000000 911.000000,2049.000000 
M743.132751,941.735046 
	C755.620544,975.005310 768.128723,1008.267883 780.592041,1041.547363 
	C808.085510,1114.960205 835.551331,1188.383301 863.038696,1261.798462 
	C875.281128,1294.496216 887.612488,1327.160767 899.786743,1359.883911 
	C911.954468,1392.589355 923.968994,1425.351929 936.072327,1458.081299 
	C937.510864,1461.971436 939.403931,1464.203369 944.552246,1464.176147 
	C998.366577,1463.890747 1052.182983,1463.956177 1105.998413,1464.090820 
	C1109.903320,1464.100586 1111.716309,1463.125122 1113.135376,1459.262329 
	C1135.027588,1399.666870 1157.111084,1340.141357 1179.172363,1280.608032 
	C1186.437866,1261.001587 1193.704468,1241.395020 1201.082764,1221.830933 
	C1209.275146,1200.108643 1217.699585,1178.473633 1225.838989,1156.731812 
	C1242.976318,1110.955688 1259.963867,1065.123291 1277.072144,1019.335999 
	C1286.901978,993.028015 1296.848022,966.763367 1307.008423,940.990112 
	C1307.174683,941.086243 1307.340942,941.182434 1307.503052,942.076416 
	C1307.503052,1115.968384 1307.503052,1289.860229 1307.503052,1463.757812 
	C1379.101318,1463.757812 1449.874878,1463.757812 1520.824707,1463.757812 
	C1520.824707,1171.326050 1520.824707,879.136780 1520.824707,586.494324 
	C1518.680420,586.494324 1516.873779,586.494324 1515.067139,586.494324 
	C1435.238403,586.494446 1355.409668,586.534546 1275.581299,586.387817 
	C1271.148315,586.379639 1269.349609,587.906799 1267.761475,591.881348 
	C1235.070435,673.692810 1202.217896,755.439636 1169.404053,837.202026 
	C1147.739136,891.183960 1126.088135,945.171448 1104.423828,999.153625 
	C1091.354614,1031.718994 1078.265625,1064.276489 1065.197021,1096.842163 
	C1056.478882,1118.567383 1047.783569,1140.301758 1039.072754,1162.029907 
	C1034.956299,1172.297729 1030.827271,1182.560425 1026.424316,1193.521240 
	C1025.638184,1191.953979 1025.148926,1191.124878 1024.790405,1190.242676 
	C1010.860718,1155.960327 996.933167,1121.677124 983.026672,1087.385376 
	C972.933105,1062.495972 962.879578,1037.590454 952.791077,1012.699036 
	C895.788574,872.055542 838.768372,731.419250 781.849731,590.741821 
	C780.487915,587.376038 778.700562,586.419373 775.210693,586.423462 
	C694.548767,586.517151 613.886719,586.493408 533.224731,586.507019 
	C531.464172,586.507324 529.703552,586.690063 527.763977,586.797668 
	C527.763977,879.392883 527.763977,1171.473755 527.763977,1463.718018 
	C598.935913,1463.718018 669.837708,1463.718018 741.165588,1463.718018 
	C741.165588,1461.311279 741.165588,1459.181641 741.165588,1457.052002 
	C741.165588,1287.228516 741.165222,1117.405029 741.170227,947.581482 
	C741.170288,945.416443 741.239502,943.251343 741.806396,941.120850 
	C742.159546,941.096680 742.512756,941.072510 743.132751,941.735046 
z"/>
<path fill="#A57DCB" opacity="1.000000" stroke="none" 
	d="
M1306.741699,940.479126 
	C1296.848022,966.763367 1286.901978,993.028015 1277.072144,1019.335999 
	C1259.963867,1065.123291 1242.976318,1110.955688 1225.838989,1156.731812 
	C1217.699585,1178.473633 1209.275146,1200.108643 1201.082764,1221.830933 
	C1193.704468,1241.395020 1186.437866,1261.001587 1179.172363,1280.608032 
	C1157.111084,1340.141357 1135.027588,1399.666870 1113.135376,1459.262329 
	C1111.716309,1463.125122 1109.903320,1464.100586 1105.998413,1464.090820 
	C1052.182983,1463.956177 998.366577,1463.890747 944.552246,1464.176147 
	C939.403931,1464.203369 937.510864,1461.971436 936.072327,1458.081299 
	C923.968994,1425.351929 911.954468,1392.589355 899.786743,1359.883911 
	C887.612488,1327.160767 875.281128,1294.496216 863.038696,1261.798462 
	C835.551331,1188.383301 808.085510,1114.960205 780.592041,1041.547363 
	C768.128723,1008.267883 755.620544,975.005310 743.016968,941.103394 
	C742.471619,939.714844 742.042175,938.958069 741.354980,937.747131 
	C741.175659,938.811951 741.036438,939.265442 741.040771,939.717529 
	C741.045227,940.174500 741.191956,940.630127 741.276367,941.086304 
	C741.239502,943.251343 741.170288,945.416443 741.170227,947.581482 
	C741.165222,1117.405029 741.165588,1287.228516 741.165588,1457.052002 
	C741.165588,1459.181641 741.165588,1461.311279 741.165588,1463.718018 
	C669.837708,1463.718018 598.935913,1463.718018 527.763977,1463.718018 
	C527.763977,1171.473755 527.763977,879.392883 527.763977,586.797668 
	C529.703552,586.690063 531.464172,586.507324 533.224731,586.507019 
	C613.886719,586.493408 694.548767,586.517151 775.210693,586.423462 
	C778.700562,586.419373 780.487915,587.376038 781.849731,590.741821 
	C838.768372,731.419250 895.788574,872.055542 952.791077,1012.699036 
	C962.879578,1037.590454 972.933105,1062.495972 983.026672,1087.385376 
	C996.933167,1121.677124 1010.860718,1155.960327 1024.790405,1190.242676 
	C1025.148926,1191.124878 1025.638184,1191.953979 1026.424316,1193.521240 
	C1030.827271,1182.560425 1034.956299,1172.297729 1039.072754,1162.029907 
	C1047.783569,1140.301758 1056.478882,1118.567383 1065.197021,1096.842163 
	C1078.265625,1064.276489 1091.354614,1031.718994 1104.423828,999.153625 
	C1126.088135,945.171448 1147.739136,891.183960 1169.404053,837.202026 
	C1202.217896,755.439636 1235.070435,673.692810 1267.761475,591.881348 
	C1269.349609,587.906799 1271.148315,586.379639 1275.581299,586.387817 
	C1355.409668,586.534546 1435.238403,586.494446 1515.067139,586.494324 
	C1516.873779,586.494324 1518.680420,586.494324 1520.824707,586.494324 
	C1520.824707,879.136780 1520.824707,1171.326050 1520.824707,1463.757812 
	C1449.874878,1463.757812 1379.101318,1463.757812 1307.503052,1463.757812 
	C1307.503052,1289.860229 1307.503052,1115.968384 1307.648193,941.465454 
	C1307.631226,940.343872 1307.469116,939.833313 1307.306885,939.322632 
	C1307.118408,939.708130 1306.930054,940.093628 1306.741699,940.479126 
z"/>
<path fill="#332542" opacity="1.000000" stroke="none" 
	d="
M741.541382,941.103577 
	C741.191956,940.630127 741.045227,940.174500 741.040771,939.717529 
	C741.036438,939.265442 741.175659,938.811951 741.354980,937.747131 
	C742.042175,938.958069 742.471619,939.714844 742.883545,940.760010 
	C742.512756,941.072510 742.159546,941.096680 741.541382,941.103577 
z"/>
<path fill="#5A4270" opacity="1.000000" stroke="none" 
	d="
M1306.875000,940.734619 
	C1306.930054,940.093628 1307.118408,939.708130 1307.306885,939.322632 
	C1307.469116,939.833313 1307.631226,940.343872 1307.650391,941.066528 
	C1307.340942,941.182434 1307.174683,941.086243 1306.875000,940.734619 
z"/>
</svg>